<svg width="180" height="124" viewBox="0 0 180 124" fill="none" xmlns="http://www.w3.org/2000/svg">
<path d="M115.513 92.1894C111.006 100.163 104.771 107.036 97.3323 112.294C87.2698 119.414 74.9849 123.591 61.7329 123.591C27.6461 123.591 0 95.9448 0 61.8579C0 27.7608 27.6461 0.125 61.7329 0.125C74.9849 0.125 87.2698 4.30226 97.3323 11.4221H97.3426C104.781 16.6797 111.006 23.5527 115.502 31.5162C105.018 37.566 97.9496 48.8734 97.9496 61.8579C97.9496 74.8322 105.018 86.1601 115.513 92.1894Z" fill="#FD4370"/>
<path d="M175.865 91.5412L166.636 86.2116C163.457 84.3802 159.486 84.9049 156.811 87.4154C150.565 93.2594 142.17 96.8399 132.93 96.8399C126.592 96.8399 120.635 95.1423 115.511 92.1894C105.017 86.1601 97.9482 74.8322 97.9482 61.8579C97.9482 48.8734 105.017 37.566 115.501 31.5162H115.511C120.635 28.5633 126.592 26.8759 132.93 26.8759C142.139 26.8759 150.524 30.4359 156.769 36.2491C159.445 38.7492 163.406 39.274 166.585 37.4426L175.814 32.113C180.393 29.4687 181.37 23.2234 177.738 19.3857C166.482 7.52266 150.576 0.125 132.93 0.125C119.668 0.125 107.404 4.30226 97.3412 11.4221H97.3309C97.2897 11.453 97.2383 11.4839 97.1971 11.5147C96.7444 11.8337 96.302 12.1629 95.8699 12.4922C95.6435 12.6568 95.4172 12.8317 95.1908 12.9963C94.9336 13.2021 94.6867 13.3976 94.4397 13.6034C94.1928 13.7886 93.9664 13.9738 93.7298 14.1692C93.4931 14.3647 93.2668 14.5499 93.0404 14.7454C92.8038 14.9409 92.5774 15.1467 92.3511 15.3422C91.8881 15.7331 91.4457 16.1344 91.0033 16.546C90.7769 16.7517 90.5608 16.9575 90.3448 17.1736C89.4702 18.007 88.6162 18.8609 87.7931 19.7458C87.6079 19.9413 87.4227 20.1471 87.2375 20.3528C86.1469 21.5463 85.1078 22.7913 84.1097 24.0671C83.976 24.242 83.8422 24.4169 83.7188 24.5918C83.2249 25.2297 82.7928 25.8573 82.2475 26.5879C82.1446 26.7216 81.98 26.9583 81.8874 27.1023C81.3112 27.9768 80.7453 28.8617 80.1794 29.7362C80.1074 29.8597 79.9839 30.0655 79.9119 30.1889C79.6135 30.7343 79.3152 31.2384 79.0065 31.7734C78.7698 32.2056 78.5332 32.648 78.2966 33.0904C78.1731 33.3373 78.0393 33.5843 77.9159 33.8312C77.5043 34.6337 77.1031 35.4671 76.7224 36.3005C76.5989 36.5783 76.4754 36.8561 76.352 37.1339C75.7244 38.5538 75.1585 40.0045 74.644 41.4861C74.5411 41.7536 74.4588 42.0211 74.3662 42.2989C74.2633 42.587 74.1707 42.8854 74.0781 43.1734C74.0164 43.3792 73.9547 43.5747 73.8929 43.7702C73.8415 43.9142 73.8003 44.0686 73.7592 44.2229C73.5843 44.7991 73.4197 45.3855 73.2653 45.972C73.1933 46.2395 73.1213 46.4967 73.0595 46.7539C72.9052 47.361 72.7612 47.968 72.6274 48.5751C72.5657 48.8529 72.5142 49.1307 72.4525 49.4085C72.4422 49.4393 72.4422 49.4702 72.4422 49.5011C72.3702 49.7994 72.3188 50.1081 72.257 50.4168C72.1438 51.0032 72.0512 51.5897 71.9381 52.1659C71.8866 52.4231 71.8558 52.6803 71.8249 52.9272C71.7632 53.5034 71.6706 54.131 71.5985 54.7689L71.5368 55.3245C71.5162 55.5715 71.4956 55.8184 71.4648 56.0653C71.4545 56.2608 71.4339 56.446 71.4133 56.6415C71.403 56.7958 71.3928 56.9502 71.3825 57.1045C71.3413 57.6292 71.3104 58.154 71.2796 58.6787C71.2693 58.9256 71.259 59.1726 71.2487 59.4195V59.5224C71.2281 59.7487 71.2281 59.9648 71.2281 60.1912C71.2178 60.4175 71.2076 60.6439 71.2076 60.8805C71.2076 61.1995 71.1973 61.5287 71.1973 61.8579C71.1973 62.1769 71.2076 62.5061 71.2076 62.8251C71.2076 63.0617 71.2178 63.2881 71.2281 63.5247C71.2281 63.7408 71.2281 63.9569 71.2487 64.1832V64.2861L71.2796 65.0269C71.3104 65.5619 71.3413 66.0764 71.3825 66.6011C71.3928 66.7554 71.403 66.9098 71.4133 67.0641C71.4339 67.2596 71.4545 67.4551 71.4648 67.6403C71.4956 67.8872 71.5162 68.1341 71.5368 68.3811C71.5574 68.5663 71.578 68.7514 71.5985 68.9367C71.6706 69.5746 71.7632 70.2022 71.8249 70.7784C71.8558 71.0356 71.8866 71.2825 71.9381 71.5397C72.0512 72.1159 72.1438 72.7024 72.257 73.2888C72.3188 73.5975 72.3702 73.9062 72.4422 74.2045C72.4422 74.2354 72.4422 74.2663 72.4525 74.2971C72.5142 74.5749 72.5657 74.8527 72.6274 75.1305C72.7612 75.7376 72.9052 76.3446 73.0595 76.9516C73.1213 77.2089 73.1933 77.4764 73.2653 77.7336C73.4197 78.3201 73.5843 78.9065 73.7592 79.4827C73.8003 79.637 73.8415 79.7914 73.8929 79.9354C73.9547 80.1309 74.0164 80.3367 74.0781 80.5322C74.1707 80.8305 74.2633 81.1186 74.3662 81.4067C74.4588 81.6845 74.5411 81.952 74.644 82.2298C75.1585 83.7011 75.7244 85.1518 76.352 86.5717C76.4754 86.8495 76.5989 87.1273 76.7224 87.4051C77.1031 88.2385 77.5043 89.0719 77.9159 89.8847C78.0393 90.1316 78.1731 90.3786 78.2966 90.6255C78.5332 91.0576 78.7698 91.5 79.0065 91.9322C79.2328 92.3232 79.4489 92.6935 79.665 93.0742C79.9222 93.5372 80.3749 94.2574 80.6527 94.6999L81.8462 96.5519C81.9388 96.7062 82.1137 96.9531 82.2269 97.0972C82.7825 97.8277 83.2146 98.4759 83.7188 99.1138C83.8422 99.2887 83.976 99.4636 84.1097 99.6385C85.1078 100.914 86.1469 102.159 87.2375 103.363C87.4227 103.569 87.6079 103.764 87.7931 103.96C88.6162 104.845 89.4702 105.709 90.3448 106.532C90.5608 106.748 90.7769 106.954 91.0033 107.16C91.4457 107.571 91.8881 107.972 92.3511 108.363C92.5774 108.569 92.8038 108.765 93.0404 108.96C93.2668 109.156 93.4931 109.351 93.7298 109.536C93.9664 109.732 94.1928 109.927 94.4397 110.113C94.6867 110.308 94.9336 110.504 95.1908 110.709C95.4172 110.874 95.6435 111.049 95.8699 111.224C96.302 111.553 96.7444 111.872 97.1971 112.191C97.2383 112.222 97.2897 112.253 97.3309 112.294C107.393 119.403 119.668 123.591 132.93 123.591C150.596 123.591 166.534 116.162 177.789 104.258C181.421 100.42 180.434 94.1751 175.865 91.5412Z" fill="white"/>
</svg>
