<svg width="200" height="138" viewBox="0 0 200 138" fill="none" xmlns="http://www.w3.org/2000/svg">
<path d="M128.347 102.294C123.34 111.153 116.412 118.79 108.147 124.632C96.9664 132.543 83.3165 137.184 68.5921 137.184C30.7178 137.184 0 106.466 0 68.5921C0 30.7064 30.7178 0 68.5921 0C83.3165 0 96.9664 4.6414 108.147 12.5524H108.158C116.424 18.3941 123.34 26.0307 128.336 34.8791C116.687 41.6011 108.833 54.1649 108.833 68.5921C108.833 83.0079 116.687 95.5945 128.347 102.294Z" fill="#FD4370"/>
<path d="M195.407 101.573L185.153 95.6517C181.62 93.6168 177.208 94.1998 174.235 96.9892C167.296 103.483 157.967 107.461 147.701 107.461C140.659 107.461 134.04 105.575 128.347 102.294C116.686 95.5945 108.833 83.0079 108.833 68.5921C108.833 54.1649 116.686 41.6011 128.336 34.8791H128.347C134.04 31.5981 140.659 29.7232 147.701 29.7232C157.933 29.7232 167.25 33.6787 174.189 40.1378C177.162 42.9158 181.563 43.4988 185.096 41.4639L195.35 35.5421C200.437 32.6041 201.523 25.6649 197.488 21.4007C184.981 8.21962 167.307 0 147.701 0C132.966 0 119.339 4.6414 108.158 12.5524H108.147C108.101 12.5866 108.044 12.6209 107.998 12.6552C107.495 13.0096 107.003 13.3755 106.523 13.7413C106.272 13.9242 106.02 14.1185 105.769 14.3015C105.483 14.5301 105.209 14.7473 104.934 14.9759C104.66 15.1817 104.408 15.3875 104.145 15.6047C103.883 15.8219 103.631 16.0277 103.38 16.2449C103.117 16.4621 102.865 16.6907 102.614 16.908C102.099 17.3424 101.608 17.7882 101.116 18.2455C100.865 18.4741 100.624 18.7028 100.384 18.9429C99.4126 19.8688 98.4638 20.8177 97.5492 21.8009C97.3434 22.0181 97.1377 22.2467 96.9319 22.4753C95.7201 23.8015 94.5655 25.1847 93.4566 26.6023C93.3079 26.7966 93.1593 26.991 93.0221 27.1853C92.4734 27.8941 91.9933 28.5915 91.3874 29.4031C91.273 29.5518 91.0901 29.8147 90.9872 29.9747C90.347 30.9465 89.7183 31.9296 89.0895 32.9013C89.0095 33.0385 88.8723 33.2672 88.7923 33.4044C88.4608 34.0102 88.1292 34.5704 87.7863 35.1649C87.5233 35.645 87.2604 36.1366 86.9975 36.6282C86.8603 36.9025 86.7117 37.1769 86.5745 37.4513C86.1172 38.343 85.6714 39.269 85.2484 40.195C85.1112 40.5036 84.974 40.8123 84.8368 41.121C84.1395 42.6986 83.5107 44.3105 82.9391 45.9567C82.8248 46.2539 82.7333 46.5512 82.6304 46.8598C82.5161 47.1799 82.4132 47.5115 82.3103 47.8316C82.2418 48.0602 82.1732 48.2774 82.1046 48.4946C82.0474 48.6547 82.0017 48.8261 81.956 48.9976C81.7616 49.6378 81.5787 50.2894 81.4072 50.9411C81.3272 51.2383 81.2472 51.5241 81.1786 51.8099C81.0071 52.4844 80.847 53.1589 80.6984 53.8334C80.6298 54.142 80.5727 54.4507 80.5041 54.7594C80.4927 54.7937 80.4927 54.8279 80.4927 54.8622C80.4126 55.1938 80.3555 55.5367 80.2869 55.8797C80.1611 56.5313 80.0582 57.1829 79.9325 57.8231C79.8753 58.1089 79.841 58.3947 79.8067 58.6691C79.7381 59.3093 79.6352 60.0067 79.5552 60.7154L79.4866 61.3328C79.4638 61.6071 79.4409 61.8815 79.4066 62.1559C79.3952 62.3731 79.3723 62.5789 79.3495 62.7961C79.338 62.9675 79.3266 63.139 79.3152 63.3105C79.2694 63.8935 79.2351 64.4766 79.2008 65.0596C79.1894 65.334 79.178 65.6083 79.1665 65.8827V65.997C79.1437 66.2485 79.1437 66.4886 79.1437 66.7401C79.1322 66.9916 79.1208 67.2431 79.1208 67.5061C79.1208 67.8604 79.1094 68.2263 79.1094 68.5921C79.1094 68.9465 79.1208 69.3123 79.1208 69.6667C79.1208 69.9296 79.1322 70.1811 79.1437 70.4441C79.1437 70.6842 79.1437 70.9242 79.1665 71.1757V71.2901L79.2008 72.1132C79.2351 72.7076 79.2694 73.2792 79.3152 73.8623C79.3266 74.0337 79.338 74.2052 79.3495 74.3767C79.3723 74.5939 79.3952 74.8111 79.4066 75.0169C79.4409 75.2913 79.4638 75.5656 79.4866 75.84C79.5095 76.0458 79.5324 76.2515 79.5552 76.4573C79.6352 77.1661 79.7381 77.8635 79.8067 78.5037C79.841 78.7895 79.8753 79.0638 79.9325 79.3496C80.0582 79.9898 80.1611 80.6414 80.2869 81.2931C80.3555 81.636 80.4126 81.979 80.4927 82.3105C80.4927 82.3448 80.4927 82.3791 80.5041 82.4134C80.5727 82.7221 80.6298 83.0307 80.6984 83.3394C80.847 84.0139 81.0071 84.6884 81.1786 85.3629C81.2472 85.6487 81.3272 85.9459 81.4072 86.2317C81.5787 86.8833 81.7616 87.5349 81.956 88.1751C82.0017 88.3466 82.0474 88.5181 82.1046 88.6781C82.1732 88.8954 82.2418 89.124 82.3103 89.3412C82.4132 89.6727 82.5161 89.9928 82.6304 90.3129C82.7333 90.6216 82.8248 90.9188 82.9391 91.2275C83.5107 92.8623 84.1395 94.4742 84.8368 96.0518C84.974 96.3605 85.1112 96.6691 85.2484 96.9778C85.6714 97.9038 86.1172 98.8298 86.5745 99.7329C86.7117 100.007 86.8603 100.282 86.9975 100.556C87.2604 101.036 87.5233 101.528 87.7863 102.008C88.0378 102.442 88.2779 102.854 88.5179 103.277C88.8037 103.791 89.3067 104.592 89.6154 105.083L90.9415 107.141C91.0444 107.312 91.2387 107.587 91.3645 107.747C91.9818 108.558 92.462 109.279 93.0221 109.987C93.1593 110.182 93.3079 110.376 93.4566 110.57C94.5655 111.988 95.7201 113.371 96.9319 114.709C97.1377 114.937 97.3434 115.155 97.5492 115.372C98.4638 116.355 99.4126 117.315 100.384 118.23C100.624 118.47 100.865 118.699 101.116 118.927C101.608 119.385 102.099 119.83 102.614 120.265C102.865 120.493 103.117 120.711 103.38 120.928C103.631 121.145 103.883 121.362 104.145 121.568C104.408 121.785 104.66 122.002 104.934 122.208C105.209 122.425 105.483 122.643 105.769 122.871C106.02 123.054 106.272 123.249 106.523 123.443C107.003 123.809 107.495 124.163 107.998 124.518C108.044 124.552 108.101 124.586 108.147 124.632C119.327 132.531 132.966 137.184 147.701 137.184C167.33 137.184 185.038 128.93 197.545 115.703C201.581 111.439 200.483 104.5 195.407 101.573Z" fill="#141628"/>
</svg>
